# xmcd CD database file
#
# Track frame offsets:
#	150
#	17938
#	39333
#	58324
#	74831
#	95816
#	114917
#	139068
#	158688
#	180751
#	205012
#	224900
#	240774
#
# Disc length: 3379 seconds
#
# Revision: 0
# Processed by: cddbd v1.5.1PL0 Copyright (c) Steve Scherf et al.
# Submitted via: CDex 1.51
#
DISCID=b80d310d
DTITLE=Keith Urban - Be Here
DYEAR=2004
DGENRE=Country
TTITLE0=Days Go By
TTITLE1=Better Life
TTITLE2=Making Memories Of Us
TTITLE3=God's Been Good To Me
TTITLE4=The Hard Way
TTITLE5=You're My Better Half
TTITLE6=I Could Fly
TTITLE7=Tonight I Wanna Cry
TTITLE8=She's Gotta Be
TTITLE9=Nobody Drinks Alone
TTITLE10=Country Comfort
TTITLE11=Live To Love Another Day
TTITLE12=These Are The Days
EXTD=YEAR: 2004
EXTT0=
EXTT1=
EXTT2=
EXTT3=
EXTT4=
EXTT5=
EXTT6=
EXTT7=
EXTT8=
EXTT9=
EXTT10=
EXTT11=
EXTT12=
PLAYORDER=
